<?xml version="1.0" encoding="UTF-8"?>
<svg id="Layer_1" xmlns="http://www.w3.org/2000/svg" xmlns:xlink="http://www.w3.org/1999/xlink" version="1.1" viewBox="0 0 2560 1600">
  <!-- Generator: Adobe Illustrator 29.5.1, SVG Export Plug-In . SVG Version: 2.1.0 Build 141)  -->
  <defs>
    <style>
      .st0 {
        fill: none;
      }

      .st1 {
        fill: url(#linear-gradient);
      }

      .st2 {
        fill: #666;
      }

      .st2, .st3 {
        stroke: #fff;
        stroke-miterlimit: 10;
        stroke-width: 2px;
      }

      .st3 {
        fill: #fff;
      }

      .st4 {
        fill: #c9d4ff;
      }

      .st5 {
        clip-path: url(#clippath);
      }
    </style>
    <clipPath id="clippath">
      <rect class="st0" width="2560" height="1600"/>
    </clipPath>
    <linearGradient id="linear-gradient" x1="632.65" y1="-66.24" x2="633.15" y2="-65.36" gradientTransform="translate(-1618988 106040.5) scale(2560 1600)" gradientUnits="userSpaceOnUse">
      <stop offset="0" stop-color="#171ba3" stop-opacity=".97"/>
      <stop offset="1" stop-color="#0e105d" stop-opacity=".97"/>
    </linearGradient>
  </defs>
  <g class="st5">
    <g id="Custom_Size_8">
      <rect class="st1" width="2560" height="1600" rx="3" ry="3"/>
    </g>
  </g>
  <g>
    <path id="Path_131" class="st4" d="M84.62,1471.63h-.88c-1.86.03-3.52-1.16-4.08-2.94-.7-3.98-4.23-6.83-8.27-6.67-2.69-.2-5.35.67-7.4,2.41-1.79,1.96-2.7,4.57-2.5,7.22.05,2.51,1.04,4.91,2.77,6.73l19.81,22.77c3.45,3.66,5.4,8.47,5.48,13.49v4.84c.06,5.03-1.92,9.87-5.48,13.41-3.39,3.67-8.18,5.73-13.18,5.67h-9.4c-5.12.39-10.18-1.35-13.98-4.8-2.37-2.58-3.88-5.83-4.31-9.31-.36-2.36,1.26-4.56,3.62-4.92.22-.03.43-.05.65-.05h4.73c-.06.65-.09,1.18-.09,1.56-.12,2.35.99,4.59,2.94,5.91,1.89,1.32,4.14,2.02,6.45,2.01,2.64.25,5.25-.64,7.19-2.46,1.6-2.04,2.39-4.6,2.21-7.18-.04-2.51-1.03-4.91-2.76-6.73l-19.82-22.67c-3.45-3.65-5.41-8.46-5.48-13.49v-4.84c-.07-5.04,1.91-9.89,5.48-13.45,3.4-3.66,8.19-5.71,13.19-5.66h9.4c9.96,0,15.96,4.63,17.98,13.9.49,2.33-1.01,4.61-3.34,5.1-.29.06-.58.09-.88.09l-.02.03s-.03.03-.03.03Z"/>
    <path id="Path_132" class="st4" d="M178.07,1429.66h-22.65v5.68c0,1.49.59,2.92,1.66,3.95,1.05,1.09,2.51,1.7,4.02,1.68h5.67c2.72.39,5.24-1.51,5.63-4.23.07-.46.07-.93,0-1.39h5.68c-.88,7.53-4.65,11.3-11.29,11.29h-11.76c-2.14,0-4.23-.67-5.96-1.94-3.1-2.1-4.94-5.6-4.93-9.34v-17.45c0-2.15.67-4.24,1.95-5.96,2.11-3.08,5.61-4.93,9.34-4.92h11.35c3.01-.04,5.89,1.18,7.97,3.36,2.15,2.1,3.35,4.99,3.32,8v11.29-.02h0ZM155.42,1423.97h11.35v-5.62c0-3.13-2.55-5.67-5.68-5.67s-5.67,2.54-5.67,5.67v5.62h0Z"/>
    <path id="Path_133" class="st4" d="M132.95,1428.78h-29.48c-1.66,0-3.01,1.35-3.01,3.01v5.88c.05,4.88,4.02,8.82,8.91,8.82h8.91c4.89,0,7.74-2.03,8.58-6.09.3-1.57,1.67-2.72,3.27-2.73h1.85c1.88.01,3.4,1.55,3.39,3.43,0,.26-.03.51-.09.76-2.21,9.02-7.87,13.54-16.99,13.54h-17.82c-9.77-.05-17.68-7.96-17.73-17.73v-25.29c-.14-5.76,2.26-11.3,6.57-15.13,3.11-2.64,7.07-4.07,11.15-4.02h17.82c4.72-.05,9.24,1.86,12.5,5.27,3.39,3.29,5.28,7.83,5.22,12.55v14.71c0,1.66-1.35,3.01-3.01,3.01h-.04ZM103.45,1419.87h11.76c1.66,0,3.01-1.35,3.01-3.01v-5.81c0-4.92-3.99-8.91-8.91-8.91s-8.91,3.99-8.91,8.91v5.8c0,1.66,1.35,3.01,3.01,3.01h.04Z"/>
    <path id="Path_134" class="st4" d="M178.91,1539.78c.67.01,1.2.56,1.19,1.22v.06c-1.39,15.15-9.36,22.73-23.92,22.73h-24.12c-13.24-.07-23.95-10.78-24.02-24.02v-60.23c-.06-6.33,2.46-12.41,6.96-16.86,4.42-4.68,10.61-7.28,17.05-7.16h24.13c14.71,0,22.68,7.58,23.93,22.75.05.65-.44,1.22-1.09,1.27h-9.88c-.58,0-1.08-.44-1.16-1.01-1.16-7.29-5.1-10.93-11.81-10.93h-12.06c-3.2-.05-6.28,1.23-8.52,3.53-2.31,2.2-3.6,5.25-3.56,8.44v60.23c-.03,2.42.71,4.79,2.13,6.75,2.5,3.34,6.46,5.27,10.63,5.19h11.36c6.75,0,10.69-3.64,11.81-10.93.09-.58.57-1.01,1.16-1.03h9.79,0Z"/>
    <path id="Path_135" class="st4" d="M183.69,1555.54v-92.94c0-1.95,2.89-1.45,4.82-1.45l4.08-.06c1.95,0,4.84-.58,4.84,1.37v59.14c.12-1.78.89-3.46,2.16-4.71,1.33-1.1,3.03-1.65,4.76-1.55h6.91c3.59-.07,7.07,1.26,9.7,3.7,2.58,2.2,4.06,5.43,4.05,8.82v27.66c0,1.95-1.57,3.53-3.52,3.53h-6.72c-1.95,0-3.53-1.57-3.53-3.52h0v-27.67c0-1.71-.74-3.33-2.05-4.43-2.78-2.45-6.95-2.45-9.73,0-1.29,1.11-2.04,2.72-2.04,4.43v27.66c0,1.95-1.57,3.53-3.52,3.53h-6.72c-1.95,0-3.53-1.57-3.53-3.52h.04Z"/>
    <path id="Path_136" class="st4" d="M269.64,1542.05h-27.59v6.91c.04,3.79,3.12,6.84,6.91,6.85h6.91c3.31.48,6.38-1.82,6.85-5.13.08-.57.08-1.14,0-1.71h6.91c-1.09,9.17-5.67,13.75-13.77,13.75h-13.82c-7.58-.04-13.71-6.17-13.75-13.75v-20.68c0-7.6,6.15-13.77,13.75-13.82h13.82c3.66-.05,7.18,1.44,9.7,4.09,2.63,2.55,4.09,6.07,4.05,9.73v13.75h.03,0ZM242.05,1535.14h13.82v-6.84c.03-1.84-.72-3.61-2.05-4.87-2.72-2.68-7.09-2.65-9.77.07-1.26,1.28-1.98,3.01-1.99,4.81l-.02,6.84h.01Z"/>
    <path id="Path_137" class="st4" d="M315.25,1562.72h-13.77v-34.43c.03-1.84-.72-3.61-2.05-4.87-2.72-2.68-7.09-2.65-9.77.07-1.26,1.28-1.98,3.01-1.99,4.81v34.43h-13.77v-48.26h13.75v6.91c.11-1.93.87-3.77,2.16-5.21,1.29-1.2,3-1.82,4.76-1.72h6.91c4.06-.29,7.98,1.55,10.34,4.87,1.02-1.59,2.48-2.87,4.19-3.67,1.93-.85,4.02-1.26,6.13-1.21h6.85c7.62.03,13.79,6.2,13.81,13.82v34.43h-13.82v-34.44c-.04-3.78-3.08-6.84-6.85-6.91-1.84-.02-3.6.72-4.87,2.04-1.33,1.27-2.06,3.04-2.04,4.87v34.43l.03.03h0Z"/>
    <rect id="Rectangle_176" class="st4" x="129.45" y="1386.82" width="22.07" height="6.42"/>
    <rect id="Rectangle_177" class="st4" x="175.45" y="1400.58" width="15.73" height="6.42"/>
    <rect id="Rectangle_178" class="st4" x="84.35" y="1491.66" width="18.9" height="5.54" rx=".6" ry=".6"/>
    <rect id="Rectangle_179" class="st4" x="261.78" y="1506.47" width="15.73" height="6.42"/>
    <rect id="Rectangle_180" class="st4" x="84.35" y="1483.63" width="18.9" height="5.54" rx=".6" ry=".6"/>
  </g>
  <g>
    <path class="st2" d="M627.8,461.25c-24.34,0-44.92-4.67-61.75-14-16.84-9.33-29.67-23.16-38.5-41.5-8.84-18.33-13.25-40.66-13.25-67,0-28.66,5.5-52.25,16.5-70.75s25.58-32.25,43.75-41.25c18.16-9,38.08-13.5,59.75-13.5,31.66,0,57.08,9.59,76.25,28.75,17.57,17.58,27.23,42.93,28.97,76.06.26,4.99-3.74,9.19-8.74,9.19h-137.48c-6.39,0-11.61-5.11-11.75-11.5h0c-.14-6.59,5.16-12,11.75-12h59.1c4.96,0,8.92-4.13,8.74-9.09-.35-9.96-1.3-18.93-2.84-26.91-2-10.33-5.42-18.33-10.25-24-4.84-5.66-11.75-8.5-20.75-8.5-15.34,0-25.84,6.67-31.5,20-5.67,13.34-8.5,34.84-8.5,64.5,0,22,2.5,39.34,7.5,52,5,12.67,12.5,21.75,22.5,27.25s22.33,8.25,37,8.25c13,0,24.08-1.33,33.25-4,9.16-2.66,17.16-6.58,24-11.75,4.8-3.63,9.23-7.63,13.3-12.01,2.97-3.2,7.82-3.76,11.41-1.28h0c3.73,2.59,4.86,7.6,2.61,11.54-4.13,7.26-8.41,14.42-12.82,21.49-5.84,9.34-12.84,17.75-21,25.25-8.17,7.5-18.42,13.5-30.75,18-12.34,4.5-27.84,6.75-46.5,6.75h0Z"/>
    <path class="st2" d="M888.85,461.25c-24.34,0-44.92-4.67-61.75-14-16.84-9.33-29.67-23.16-38.5-41.5-8.84-18.33-13.25-40.66-13.25-67,0-28.66,5.5-52.25,16.5-70.75s25.58-32.25,43.75-41.25c18.16-9,38.08-13.5,59.75-13.5,31.66,0,57.08,9.59,76.25,28.75,19.16,19.17,28.91,47.59,29.25,85.25h-146.5c-6.39,0-11.61-5.11-11.75-11.5h0c-.14-6.59,5.16-12,11.75-12h68c0-13.66-1-25.66-3-36-2-10.33-5.42-18.33-10.25-24-4.84-5.66-11.75-8.5-20.75-8.5-15.34,0-25.84,6.67-31.5,20-5.67,13.34-8.5,34.84-8.5,64.5,0,22,2.5,39.34,7.5,52,5,12.67,12.5,21.75,22.5,27.25s22.33,8.25,37,8.25c13,0,24.08-1.33,33.25-4,9.16-2.66,17.16-6.58,24-11.75,4.8-3.63,9.23-7.63,13.3-12.01,2.97-3.2,7.82-3.76,11.41-1.28h0c3.73,2.59,4.86,7.6,2.61,11.54-4.13,7.26-8.41,14.42-12.82,21.49-5.84,9.34-12.84,17.75-21,25.25-8.17,7.5-18.42,13.5-30.75,18-12.34,4.5-27.84,6.75-46.5,6.75h0Z"/>
    <path class="st2" d="M1189.85,461.75c-36.34,0-66.17-7.16-89.5-21.5-23.34-14.33-40.59-34-51.75-59-11.17-25-16.75-53.66-16.75-86,0-38.33,7.16-70.41,21.5-96.25,14.33-25.83,34.25-45.25,59.75-58.25s54.91-19.5,88.25-19.5c17.66,0,31.58,1.34,41.75,4,10.16,2.67,18.16,5.42,24,8.25,5.83,2.84,11.25,4.25,16.25,4.25,5.66,0,9.5-1.83,11.5-5.5,2-3.66,3.5-7.33,4.5-11h21.5v123h-24c-6.67-31.33-18-55.16-34-71.5-16-16.33-36.84-24.5-62.5-24.5-30.34,0-52.92,11.42-67.75,34.25-14.84,22.84-22.25,56.09-22.25,99.75,0,31,3.75,56.17,11.25,75.5,7.5,19.34,19,33.42,34.5,42.25,15.5,8.84,34.91,13.25,58.25,13.25,24.66,0,44.75-4.33,60.25-13,15.5-8.66,30.41-21,44.75-37l16,14c-11,15.67-22.59,29.92-34.75,42.75-12.17,12.84-27,23-44.5,30.5s-39.59,11.25-66.25,11.25Z"/>
    <path class="st2" d="M1497.84,455.75h-142.5v-20c13.66,0,22.91-1.91,27.75-5.75,4.83-3.83,7.25-12.58,7.25-26.25v-246.5c0-8.66-2.34-14.16-7-16.5-4.67-2.33-10.34-3.5-17-3.5-4,0-8.84.5-14.5,1.5v-20.5l79-15.5h31v299c0,8,.66,14.5,2,19.5,1.33,5,4.5,8.67,9.5,11,5,2.34,13.16,3.5,24.5,3.5v20ZM1655.84,455.75h-139v-20c10.33,0,17.75-1.16,22.25-3.5,4.5-2.33,7.33-6,8.5-11,1.16-5,1.75-11.66,1.75-20v-69c0-12.66-.67-24.41-2-35.25-1.34-10.83-4.67-19.5-10-26-5.34-6.5-14.17-9.75-26.5-9.75-9.67,0-18.42,2-26.25,6-7.84,4-18.09,11.5-30.75,22.5l1-34.5h9c13.66-14.33,26.16-24.91,37.5-31.75,11.33-6.83,24.66-10.25,40-10.25,13,0,24.41,2,34.25,6,9.83,4,18.08,10,24.75,18,6.66,8,11.75,17.92,15.25,29.75,3.5,11.84,5.25,25.59,5.25,41.25v91.5c0,13.34,2.16,22.67,6.5,28,4.33,5.34,13.83,8,28.5,8v20Z"/>
    <path class="st2" d="M1786.34,461.25c-24.34,0-44.92-4.67-61.75-14-16.84-9.33-29.67-23.16-38.5-41.5-8.84-18.33-13.25-40.66-13.25-67,0-28.66,5.5-52.25,16.5-70.75s25.58-32.25,43.75-41.25c18.16-9,38.08-13.5,59.75-13.5,31.66,0,57.08,9.59,76.25,28.75,17.57,17.58,27.23,42.93,28.97,76.06.26,4.99-3.74,9.19-8.74,9.19h-137.48c-6.39,0-11.61-5.11-11.75-11.5h0c-.14-6.59,5.16-12,11.75-12h59.1c4.96,0,8.92-4.13,8.74-9.09-.35-9.96-1.3-18.93-2.84-26.91-2-10.33-5.42-18.33-10.25-24-4.84-5.66-11.75-8.5-20.75-8.5-15.34,0-25.84,6.67-31.5,20-5.67,13.34-8.5,34.84-8.5,64.5,0,22,2.5,39.34,7.5,52,5,12.67,12.5,21.75,22.5,27.25s22.33,8.25,37,8.25c13,0,24.08-1.33,33.25-4,9.16-2.66,17.16-6.58,24-11.75,4.8-3.63,9.23-7.63,13.3-12.01,2.97-3.2,7.82-3.76,11.41-1.28h0c3.73,2.59,4.86,7.6,2.61,11.54-4.13,7.26-8.41,14.42-12.82,21.49-5.84,9.34-12.84,17.75-21,25.25-8.17,7.5-18.42,13.5-30.75,18-12.34,4.5-27.84,6.75-46.5,6.75h0Z"/>
    <path class="st2" d="M2061.34,455.75h-142v-20c11,0,18.91-1.08,23.75-3.25,4.83-2.16,7.83-5.91,9-11.25,1.16-5.33,1.75-12.5,1.75-21.5v-128.5c0-9.33-1.67-15.41-5-18.25-3.34-2.83-8.5-4.25-15.5-4.25-4.34,0-8.84.34-13.5,1v-20.5l77-14.5h27v48l1.5,13.5v123.5c0,9,.75,16.17,2.25,21.5,1.5,5.34,4.75,9.09,9.75,11.25,5,2.17,13,3.25,24,3.25v20ZM2215.84,455.75h-138.5v-20c10,0,17.25-1.08,21.75-3.25,4.5-2.16,7.41-5.83,8.75-11,1.33-5.16,2-12.41,2-21.75v-78c0-23.66-3.25-39.66-9.75-48-6.5-8.33-15.59-12.5-27.25-12.5-6.67,0-13.09,1.17-19.25,3.5-6.17,2.34-12,5.5-17.5,9.5s-10.75,8.84-15.75,14.5l-3.5-33h9.5c11-10.66,22.41-20.41,34.25-29.25,11.83-8.83,26.41-13.25,43.75-13.25,22,0,39.16,5.67,51.5,17,12.33,11.34,20,27.17,23,47.5.66,5.34,1.25,10.75,1.75,16.25s.75,11.09.75,16.75v89c0,9,.83,16.17,2.5,21.5,1.66,5.34,5,9.09,10,11.25,5,2.17,12.33,3.25,22,3.25v20ZM2371.84,455.75h-138.5v-20c10,0,17.25-1.08,21.75-3.25,4.5-2.16,7.41-5.83,8.75-11,1.33-5.16,2-12.41,2-21.75v-78c0-15.66-1.42-27.91-4.25-36.75-2.84-8.83-6.92-15-12.25-18.5-5.34-3.5-12-5.25-20-5.25-10.34,0-20.25,2.59-29.75,7.75-9.5,5.17-17.59,11.59-24.25,19.25l-7.5-29.5h8.5c12.33-12.66,25.25-23.41,38.75-32.25,13.5-8.83,28.58-13.25,45.25-13.25,23.66,0,42.41,8,56.25,24,13.83,16,20.75,40.5,20.75,73.5v89c0,9,.83,16.17,2.5,21.5,1.66,5.34,5,9.09,10,11.25,5,2.17,12.33,3.25,22,3.25v20Z"/>
    <path class="st2" d="M267.61,457h-21.5l-4.5-108h25c5.33,21.34,11.25,37.75,17.75,49.25s14.41,19.42,23.75,23.75c9.33,4.34,20.66,6.5,34,6.5,10.66,0,20.75-1.41,30.25-4.25,9.5-2.83,17.25-7.5,23.25-14s9-15.25,9-26.25c0-14.33-3.5-26.08-10.5-35.25-7-9.16-16.09-17-27.25-23.5-11.17-6.5-23.25-12.75-36.25-18.75-15.34-7.66-29.67-15.75-43-24.25-13.34-8.5-24-19.16-32-32-8-12.83-12-29.41-12-49.75,0-18.66,4.5-34.16,13.5-46.5,9-12.33,21.83-21.66,38.5-28,16.66-6.33,36.33-9.5,59-9.5,12.66,0,23.08,1,31.25,3,8.16,2,14.91,4,20.25,6,5.33,2,10,3,14,3,3,0,6-.75,9-2.25s5-4.75,6-9.75h19l3,105h-23.5c-7.34-30.33-17.09-51.5-29.25-63.5-12.17-12-27.59-18-46.25-18-17.67,0-31,3.17-40,9.5-9,6.34-13.5,16.17-13.5,29.5,0,12.34,3.5,22.42,10.5,30.25,7,7.84,16.33,14.75,28,20.75,11.66,6,24.16,12.17,37.5,18.5,12,5.34,23.58,11.25,34.75,17.75,11.16,6.5,21.25,14.09,30.25,22.75,9,8.67,16.16,18.92,21.5,30.75,5.33,11.84,8,25.59,8,41.25,0,20.67-5.25,38.09-15.75,52.25-10.5,14.17-25.17,24.92-44,32.25-18.84,7.33-40.75,11-65.75,11-16,0-28.34-1.25-37-3.75-8.67-2.5-15.25-5-19.75-7.5s-8.59-3.75-12.25-3.75-6.75,1.42-9.25,4.25c-2.5,2.84-3.75,6.58-3.75,11.25h0Z"/>
    <path class="st3" d="M280.94,447.5h-21.5l-4.5-108h25c5.33,21.34,11.25,37.75,17.75,49.25s14.41,19.42,23.75,23.75c9.33,4.34,20.66,6.5,34,6.5,10.66,0,20.75-1.41,30.25-4.25,9.5-2.83,17.25-7.5,23.25-14s9-15.25,9-26.25c0-14.33-3.5-26.08-10.5-35.25-7-9.16-16.09-17-27.25-23.5-11.17-6.5-23.25-12.75-36.25-18.75-15.34-7.66-29.67-15.75-43-24.25-13.34-8.5-24-19.16-32-32-8-12.83-12-29.41-12-49.75,0-18.66,4.5-34.16,13.5-46.5,9-12.33,21.83-21.66,38.5-28,16.66-6.33,36.33-9.5,59-9.5,12.66,0,23.08,1,31.25,3,8.16,2,14.91,4,20.25,6,5.33,2,10,3,14,3,3,0,6-.75,9-2.25s5-4.75,6-9.75h19l3,105h-23.5c-7.34-30.33-17.09-51.5-29.25-63.5-12.17-12-27.59-18-46.25-18-17.67,0-31,3.17-40,9.5-9,6.34-13.5,16.17-13.5,29.5,0,12.34,3.5,22.42,10.5,30.25,7,7.84,16.33,14.75,28,20.75,11.66,6,24.16,12.17,37.5,18.5,12,5.34,23.58,11.25,34.75,17.75,11.16,6.5,21.25,14.09,30.25,22.75,9,8.67,16.16,18.92,21.5,30.75,5.33,11.84,8,25.59,8,41.25,0,20.67-5.25,38.09-15.75,52.25-10.5,14.17-25.17,24.92-44,32.25-18.84,7.33-40.75,11-65.75,11-16,0-28.34-1.25-37-3.75-8.67-2.5-15.25-5-19.75-7.5s-8.59-3.75-12.25-3.75-6.75,1.42-9.25,4.25c-2.5,2.84-3.75,6.58-3.75,11.25h0Z"/>
    <path class="st3" d="M641.13,451.75c-24.34,0-44.92-4.67-61.75-14-16.84-9.33-29.67-23.16-38.5-41.5-8.84-18.33-13.25-40.66-13.25-67,0-28.66,5.5-52.25,16.5-70.75s25.58-32.25,43.75-41.25c18.16-9,38.08-13.5,59.75-13.5,31.66,0,57.08,9.59,76.25,28.75,17.57,17.58,27.23,42.93,28.97,76.06.26,4.99-3.74,9.19-8.74,9.19h-137.48c-6.39,0-11.61-5.11-11.75-11.5h0c-.14-6.59,5.16-12,11.75-12h59.1c4.96,0,8.92-4.13,8.74-9.09-.35-9.96-1.3-18.93-2.84-26.91-2-10.33-5.42-18.33-10.25-24-4.84-5.66-11.75-8.5-20.75-8.5-15.34,0-25.84,6.67-31.5,20-5.67,13.34-8.5,34.84-8.5,64.5,0,22,2.5,39.34,7.5,52,5,12.67,12.5,21.75,22.5,27.25s22.33,8.25,37,8.25c13,0,24.08-1.33,33.25-4,9.16-2.66,17.16-6.58,24-11.75,4.8-3.63,9.23-7.63,13.3-12.01,2.97-3.2,7.82-3.76,11.41-1.28h0c3.73,2.59,4.86,7.6,2.61,11.54-4.13,7.26-8.41,14.42-12.82,21.49-5.84,9.34-12.84,17.75-21,25.25-8.17,7.5-18.42,13.5-30.75,18-12.34,4.5-27.84,6.75-46.5,6.75h0Z"/>
    <path class="st3" d="M902.17,451.75c-24.34,0-44.92-4.67-61.75-14-16.84-9.33-29.67-23.16-38.5-41.5-8.84-18.33-13.25-40.66-13.25-67,0-28.66,5.5-52.25,16.5-70.75s25.58-32.25,43.75-41.25c18.16-9,38.08-13.5,59.75-13.5,31.66,0,57.08,9.59,76.25,28.75,19.16,19.17,28.91,47.59,29.25,85.25h-146.5c-6.39,0-11.61-5.11-11.75-11.5h0c-.14-6.59,5.16-12,11.75-12h68c0-13.66-1-25.66-3-36-2-10.33-5.42-18.33-10.25-24-4.84-5.66-11.75-8.5-20.75-8.5-15.34,0-25.84,6.67-31.5,20-5.67,13.34-8.5,34.84-8.5,64.5,0,22,2.5,39.34,7.5,52,5,12.67,12.5,21.75,22.5,27.25s22.33,8.25,37,8.25c13,0,24.08-1.33,33.25-4,9.16-2.66,17.16-6.58,24-11.75,4.8-3.63,9.23-7.63,13.3-12.01,2.97-3.2,7.82-3.76,11.41-1.28h0c3.73,2.59,4.86,7.6,2.61,11.54-4.13,7.26-8.41,14.42-12.82,21.49-5.84,9.34-12.84,17.75-21,25.25-8.17,7.5-18.42,13.5-30.75,18-12.34,4.5-27.84,6.75-46.5,6.75h0Z"/>
    <path class="st3" d="M1203.17,452.25c-36.34,0-66.17-7.16-89.5-21.5-23.34-14.33-40.59-34-51.75-59-11.17-25-16.75-53.66-16.75-86,0-38.33,7.16-70.41,21.5-96.25,14.33-25.83,34.25-45.25,59.75-58.25s54.91-19.5,88.25-19.5c17.66,0,31.58,1.34,41.75,4,10.16,2.67,18.16,5.42,24,8.25,5.83,2.84,11.25,4.25,16.25,4.25,5.66,0,9.5-1.83,11.5-5.5,2-3.66,3.5-7.33,4.5-11h21.5v123h-24c-6.67-31.33-18-55.16-34-71.5-16-16.33-36.84-24.5-62.5-24.5-30.34,0-52.92,11.42-67.75,34.25-14.84,22.84-22.25,56.09-22.25,99.75,0,31,3.75,56.17,11.25,75.5,7.5,19.34,19,33.42,34.5,42.25,15.5,8.84,34.91,13.25,58.25,13.25,24.66,0,44.75-4.33,60.25-13,15.5-8.66,30.41-21,44.75-37l16,14c-11,15.67-22.59,29.92-34.75,42.75-12.17,12.84-27,23-44.5,30.5s-39.59,11.25-66.25,11.25Z"/>
    <path class="st3" d="M1511.17,446.25h-142.5v-20c13.66,0,22.91-1.91,27.75-5.75,4.83-3.83,7.25-12.58,7.25-26.25v-246.5c0-8.66-2.34-14.16-7-16.5-4.67-2.33-10.34-3.5-17-3.5-4,0-8.84.5-14.5,1.5v-20.5l79-15.5h31v299c0,8,.66,14.5,2,19.5,1.33,5,4.5,8.67,9.5,11,5,2.34,13.16,3.5,24.5,3.5v20ZM1669.17,446.25h-139v-20c10.33,0,17.75-1.16,22.25-3.5,4.5-2.33,7.33-6,8.5-11,1.16-5,1.75-11.66,1.75-20v-69c0-12.66-.67-24.41-2-35.25-1.34-10.83-4.67-19.5-10-26-5.34-6.5-14.17-9.75-26.5-9.75-9.67,0-18.42,2-26.25,6-7.84,4-18.09,11.5-30.75,22.5l1-34.5h9c13.66-14.33,26.16-24.91,37.5-31.75,11.33-6.83,24.66-10.25,40-10.25,13,0,24.41,2,34.25,6,9.83,4,18.08,10,24.75,18,6.66,8,11.75,17.92,15.25,29.75,3.5,11.84,5.25,25.59,5.25,41.25v91.5c0,13.34,2.16,22.67,6.5,28,4.33,5.34,13.83,8,28.5,8v20Z"/>
    <path class="st3" d="M1799.67,451.75c-24.34,0-44.92-4.67-61.75-14-16.84-9.33-29.67-23.16-38.5-41.5-8.84-18.33-13.25-40.66-13.25-67,0-28.66,5.5-52.25,16.5-70.75s25.58-32.25,43.75-41.25c18.16-9,38.08-13.5,59.75-13.5,31.66,0,57.08,9.59,76.25,28.75,17.57,17.58,27.23,42.93,28.97,76.06.26,4.99-3.74,9.19-8.74,9.19h-137.48c-6.39,0-11.61-5.11-11.75-11.5h0c-.14-6.59,5.16-12,11.75-12h59.1c4.96,0,8.92-4.13,8.74-9.09-.35-9.96-1.3-18.93-2.84-26.91-2-10.33-5.42-18.33-10.25-24-4.84-5.66-11.75-8.5-20.75-8.5-15.34,0-25.84,6.67-31.5,20-5.67,13.34-8.5,34.84-8.5,64.5,0,22,2.5,39.34,7.5,52,5,12.67,12.5,21.75,22.5,27.25s22.33,8.25,37,8.25c13,0,24.08-1.33,33.25-4,9.16-2.66,17.16-6.58,24-11.75,4.8-3.63,9.23-7.63,13.3-12.01,2.97-3.2,7.82-3.76,11.41-1.28h0c3.73,2.59,4.86,7.6,2.61,11.54-4.13,7.26-8.41,14.42-12.82,21.49-5.84,9.34-12.84,17.75-21,25.25-8.17,7.5-18.42,13.5-30.75,18-12.34,4.5-27.84,6.75-46.5,6.75h0Z"/>
    <path class="st3" d="M2074.67,446.25h-142v-20c11,0,18.91-1.08,23.75-3.25,4.83-2.16,7.83-5.91,9-11.25,1.16-5.33,1.75-12.5,1.75-21.5v-128.5c0-9.33-1.67-15.41-5-18.25-3.34-2.83-8.5-4.25-15.5-4.25-4.34,0-8.84.34-13.5,1v-20.5l77-14.5h27v48l1.5,13.5v123.5c0,9,.75,16.17,2.25,21.5,1.5,5.34,4.75,9.09,9.75,11.25,5,2.17,13,3.25,24,3.25v20ZM2229.17,446.25h-138.5v-20c10,0,17.25-1.08,21.75-3.25,4.5-2.16,7.41-5.83,8.75-11,1.33-5.16,2-12.41,2-21.75v-78c0-23.66-3.25-39.66-9.75-48-6.5-8.33-15.59-12.5-27.25-12.5-6.67,0-13.09,1.17-19.25,3.5-6.17,2.34-12,5.5-17.5,9.5s-10.75,8.84-15.75,14.5l-3.5-33h9.5c11-10.66,22.41-20.41,34.25-29.25,11.83-8.83,26.41-13.25,43.75-13.25,22,0,39.16,5.67,51.5,17,12.33,11.34,20,27.17,23,47.5.66,5.34,1.25,10.75,1.75,16.25s.75,11.09.75,16.75v89c0,9,.83,16.17,2.5,21.5,1.66,5.34,5,9.09,10,11.25,5,2.17,12.33,3.25,22,3.25v20ZM2385.17,446.25h-138.5v-20c10,0,17.25-1.08,21.75-3.25,4.5-2.16,7.41-5.83,8.75-11,1.33-5.16,2-12.41,2-21.75v-78c0-15.66-1.42-27.91-4.25-36.75-2.84-8.83-6.92-15-12.25-18.5-5.34-3.5-12-5.25-20-5.25-10.34,0-20.25,2.59-29.75,7.75-9.5,5.17-17.59,11.59-24.25,19.25l-7.5-29.5h8.5c12.33-12.66,25.25-23.41,38.75-32.25,13.5-8.83,28.58-13.25,45.25-13.25,23.66,0,42.41,8,56.25,24,13.83,16,20.75,40.5,20.75,73.5v89c0,9,.83,16.17,2.5,21.5,1.66,5.34,5,9.09,10,11.25,5,2.17,12.33,3.25,22,3.25v20Z"/>
  </g>
</svg>