<?xml version="1.0" encoding="UTF-8"?>
<svg id="Layer_1" xmlns="http://www.w3.org/2000/svg" version="1.1" viewBox="0 0 64 64">
  <!-- Generator: Adobe Illustrator 29.6.1, SVG Export Plug-In . SVG Version: 2.1.1 Build 9)  -->
  <defs>
    <style>
      .st0 {
        fill: none;
      }

      .st1 {
        fill: #f7f9fa;
        fill-rule: evenodd;
      }

      .st2 {
        fill: #fdfdfd;
      }
    </style>
  </defs>
  <path id="Path_104" class="st1" d="M30.27,39.32c4.22-.16,7.53-3.62,7.39-7.73s-3.67-7.31-7.89-7.16-7.53,3.62-7.39,7.73c.15,4.11,3.67,7.3,7.89,7.16ZM13.82,16.09c2.53-2.42,5.62-4.2,9.01-5.19l2.77-8.68,7.64-.29,3.34,8.45c3.39.88,6.56,2.41,9.33,4.49l9.11-2.21,4.04,6.56-5.89,6.93c.37,1.58.55,3.2.54,4.82.05,1.49-.27,3.36-.22,4.85l6.33,6.47-3.6,6.84-9.23-1.51c-2.53,2.42-5.62,4.2-9.01,5.19l-2.77,8.68-7.64.29-3.34-8.45c-3.39-.88-6.56-2.41-9.33-4.49l-9.11,2.21-4.04-6.56,5.89-6.93c-.37-1.58-.55-3.2-.54-4.82-.05-1.49.27-3.36.22-4.85L.99,21.42l3.6-6.84,9.23,1.51Z"/>
  <path id="Union_16" class="st2" d="M12.81,64v-8c0-8.8,14.4-16,32-16s32,7.2,32,16v8H12.81ZM28.81,16C28.81,7.16,35.97,0,44.81,0s16,7.16,16,16-7.16,16-16,16-16-7.16-16-16Z"/>
  <rect id="Rectangle_193" class="st0" x="0" y="0" width="64" height="64" transform="translate(2.98 -2.73) rotate(5.12)"/>
</svg>