<?xml version="1.0" encoding="UTF-8"?>
<svg id="Layer_1" xmlns="http://www.w3.org/2000/svg" version="1.1" viewBox="0 0 99.52 58.71">
  <!-- Generator: Adobe Illustrator 29.5.1, SVG Export Plug-In . SVG Version: 2.1.0 Build 141)  -->
  <defs>
    <style>
      .st0 {
        fill: #fff;
      }
    </style>
  </defs>
  <g id="SeeChemLogo">
    <path id="Path_131" class="st0" d="M13.87,28.13h-.29c-.62.01-1.17-.39-1.35-.97-.23-1.32-1.4-2.27-2.74-2.21-.89-.07-1.77.22-2.46.8-.59.65-.89,1.52-.83,2.39.02.83.34,1.63.92,2.23l6.57,7.56c1.14,1.21,1.79,2.81,1.82,4.48v1.61c.02,1.67-.64,3.27-1.82,4.45-1.13,1.22-2.71,1.9-4.37,1.88h-3.12c-1.7.13-3.38-.45-4.64-1.59-.79-.86-1.29-1.94-1.43-3.09-.12-.78.42-1.51,1.2-1.63.07,0,.14-.02.22-.02h1.57c-.02.22-.03.39-.03.52-.04.78.33,1.52.97,1.96.63.44,1.37.67,2.14.67.87.08,1.74-.21,2.38-.82.53-.68.79-1.52.73-2.38-.01-.83-.34-1.63-.92-2.23l-6.58-7.52c-1.14-1.22-1.79-2.82-1.81-4.48v-1.61c-.02-1.67.63-3.28,1.82-4.46,1.13-1.21,2.72-1.89,4.38-1.88h3.12c3.31,0,5.29,1.54,5.96,4.61.16.77-.33,1.53-1.11,1.69-.1.02-.19.03-.29.03h-.01Z"/>
    <path id="Path_132" class="st0" d="M44.87,14.21h-7.51v1.89c0,.49.19.97.55,1.31.35.36.83.56,1.33.56h1.88c.9.13,1.74-.5,1.87-1.4.02-.15.02-.31,0-.46h1.89c-.29,2.5-1.54,3.75-3.75,3.75h-3.9c-.71,0-1.4-.22-1.98-.64-1.03-.7-1.64-1.86-1.64-3.1v-5.79c0-.71.22-1.41.65-1.98.7-1.02,1.86-1.63,3.1-1.63h3.77c1-.01,1.96.39,2.64,1.11.71.7,1.11,1.66,1.1,2.65v3.75h0v-.02ZM37.35,12.33h3.77v-1.86c0-1.04-.84-1.88-1.88-1.88s-1.88.84-1.88,1.88v1.86h0Z"/>
    <path id="Path_133" class="st0" d="M29.9,13.92h-9.78c-.55,0-1,.45-1,1v1.95c.02,1.62,1.33,2.92,2.95,2.93h2.96c1.62,0,2.57-.67,2.85-2.02.1-.52.55-.9,1.08-.91h.61c.62,0,1.13.51,1.12,1.14,0,.09-.01.17-.03.25-.73,2.99-2.61,4.49-5.64,4.49h-5.91c-3.24-.02-5.86-2.64-5.88-5.88v-8.39c-.05-1.91.75-3.75,2.18-5.02,1.03-.88,2.35-1.35,3.7-1.33h5.91c1.56-.02,3.07.62,4.15,1.75,1.13,1.09,1.75,2.6,1.73,4.16v4.88c0,.55-.45,1-1,1h0ZM20.11,10.97h3.9c.55,0,1-.45,1-1v-1.93c0-1.63-1.32-2.95-2.96-2.95s-2.95,1.32-2.95,2.95v1.92c0,.55.45,1,1,1h.01Z"/>
    <path id="Path_134" class="st0" d="M45.15,50.74c.22,0,.4.19.39.41v.02c-.46,5.03-3.11,7.54-7.93,7.54h-8c-4.39-.02-7.95-3.58-7.97-7.97v-19.98c-.02-2.1.81-4.12,2.31-5.59,1.47-1.55,3.52-2.41,5.66-2.38h8.01c4.88,0,7.52,2.52,7.94,7.55.02.22-.15.4-.36.42h-3.28c-.19,0-.36-.14-.38-.34-.38-2.42-1.69-3.63-3.92-3.63h-4c-1.06-.02-2.08.41-2.83,1.17-.77.73-1.19,1.74-1.18,2.8v19.98c-.01.8.24,1.59.71,2.24.83,1.11,2.14,1.75,3.53,1.72h3.77c2.24,0,3.55-1.21,3.92-3.63.03-.19.19-.34.38-.34h3.24-.01Z"/>
    <path id="Path_135" class="st0" d="M46.73,55.97v-30.83c0-.65.96-.48,1.6-.48l1.35-.02c.65,0,1.61-.19,1.61.46v19.62c.04-.59.29-1.15.71-1.56.44-.36,1.01-.55,1.58-.51h2.29c1.19-.02,2.35.42,3.22,1.23.86.73,1.35,1.8,1.34,2.93v9.18c0,.65-.52,1.17-1.17,1.17h-2.23c-.65,0-1.17-.52-1.17-1.17h0v-9.18c0-.57-.25-1.1-.68-1.47-.92-.81-2.31-.81-3.23,0-.43.37-.68.9-.68,1.47v9.18c0,.65-.52,1.17-1.17,1.17h-2.23c-.65,0-1.17-.52-1.17-1.17h0l.02-.02Z"/>
    <path id="Path_136" class="st0" d="M75.25,51.5h-9.15v2.29c.01,1.26,1.04,2.27,2.29,2.27h2.29c1.1.16,2.12-.6,2.27-1.7.03-.19.03-.38,0-.57h2.29c-.36,3.04-1.88,4.56-4.57,4.56h-4.59c-2.51,0-4.55-2.05-4.56-4.56v-6.86c0-2.52,2.04-4.57,4.56-4.59h4.59c1.22-.02,2.38.48,3.22,1.36.87.85,1.36,2.01,1.34,3.23v4.56h.02ZM66.09,49.2h4.59v-2.27c0-.61-.24-1.2-.68-1.62-.9-.89-2.35-.88-3.24.02-.42.43-.66,1-.66,1.6v2.27h0Z"/>
    <path id="Path_137" class="st0" d="M90.38,58.35h-4.57v-11.42c0-.61-.24-1.2-.68-1.62-.9-.89-2.35-.88-3.24.02-.42.43-.66,1-.66,1.6v11.42h-4.57v-16.01h4.56v2.29c.03-.64.29-1.25.71-1.73.43-.4,1-.6,1.58-.57h2.29c1.35-.1,2.65.52,3.43,1.62.34-.53.82-.95,1.39-1.22.64-.28,1.33-.42,2.03-.4h2.27c2.53,0,4.57,2.06,4.58,4.59v11.42h-4.59v-11.43c-.01-1.25-1.02-2.27-2.27-2.29-.61,0-1.19.24-1.62.68-.44.42-.68,1.01-.68,1.62v11.42h.04Z"/>
    <rect id="Rectangle_176" class="st0" x="28.74" width="7.32" height="2.13"/>
    <rect id="Rectangle_177" class="st0" x="44" y="4.57" width="5.22" height="2.13"/>
    <rect id="Rectangle_178" class="st0" x="13.78" y="34.78" width="6.27" height="1.84" rx=".6" ry=".6"/>
    <rect id="Rectangle_179" class="st0" x="72.64" y="39.69" width="5.22" height="2.13"/>
    <rect id="Rectangle_180" class="st0" x="13.78" y="32.12" width="6.27" height="1.84" rx=".6" ry=".6"/>
  </g>
</svg>