<?xml version="1.0" encoding="UTF-8"?>
<svg id="Layer_1" xmlns="http://www.w3.org/2000/svg" version="1.1" viewBox="0 0 207.46 122.39">
  <!-- Generator: Adobe Illustrator 29.5.1, SVG Export Plug-In . SVG Version: 2.1.0 Build 141)  -->
  <defs>
    <style>
      .st0 {
        fill: #868393;
      }
    </style>
  </defs>
  <path class="st0" d="M28.9,58.65h-.61c-1.28,0-2.47-.8-2.82-2.03-.88-3.07-2.79-4.61-5.72-4.61-2.26,0-3.97.56-5.12,1.67-1.15,1.12-1.73,2.78-1.73,4.99,0,1.65.64,3.2,1.91,4.65l13.7,15.75c2.53,2.89,3.79,6,3.79,9.33v3.35c0,3.58-1.26,6.67-3.79,9.28-2.53,2.62-5.57,3.92-9.12,3.92h-6.49c-4.28,0-7.5-1.1-9.67-3.32-1.55-1.59-2.54-3.73-2.98-6.43-.29-1.81,1.12-3.45,2.95-3.45h3.27c-.04.45-.06.82-.06,1.08,0,1.8.68,3.16,2.03,4.09s2.84,1.39,4.46,1.39c2.3,0,3.96-.57,4.97-1.7,1.01-1.13,1.52-2.79,1.52-4.96,0-1.67-.64-3.22-1.91-4.65l-13.7-15.68C1.25,68.45-.01,65.34-.01,61.99v-3.35c0-3.6,1.26-6.7,3.79-9.3,2.53-2.6,5.56-3.91,9.12-3.91h6.49c6.89,0,11.04,3.2,12.43,9.61.4,1.85-1.04,3.59-2.92,3.59v.02Z"/>
  <path class="st0" d="M93.52,29.63h-15.66v3.93c0,1.05.38,1.96,1.15,2.73s1.69,1.16,2.78,1.16h3.92c2.59,0,3.89-1.3,3.89-3.89h3.93c-.61,5.21-3.22,7.81-7.81,7.81h-8.13c-1.47,0-2.94-.46-4.12-1.34-2.28-1.71-3.41-3.87-3.41-6.47v-12.06c0-1.48.46-2.95,1.35-4.12,1.72-2.27,3.87-3.4,6.46-3.4h7.85c2.14,0,3.98.77,5.51,2.32s2.3,3.39,2.3,5.53v7.81h-.01ZM77.86,25.7h7.85v-3.89c0-1.08-.39-2-1.16-2.77-.78-.77-1.7-1.16-2.76-1.16s-2,.38-2.77,1.16-1.16,1.69-1.16,2.77c0,0,0,3.89,0,3.89Z"/>
  <path class="st0" d="M62.32,29.02h-20.39c-1.16,0-2.09.94-2.09,2.09v4.07c0,1.65.6,3.08,1.8,4.29s2.65,1.81,4.36,1.81h6.16c3.38,0,5.35-1.4,5.93-4.21.22-1.09,1.15-1.89,2.26-1.89h1.28c1.51,0,2.64,1.44,2.28,2.9-1.53,6.24-5.44,9.36-11.75,9.36h-12.32c-3.36,0-6.24-1.2-8.65-3.61-2.41-2.41-3.61-5.29-3.61-8.65v-17.5c0-3.96,1.5-7.92,4.54-10.46,2.22-1.85,4.79-2.78,7.72-2.78h12.32c3.36,0,6.24,1.22,8.65,3.64,2.41,2.43,3.61,5.32,3.61,8.68v10.17c0,1.16-.94,2.09-2.09,2.09h0ZM41.92,22.86h8.13c1.16,0,2.09-.94,2.09-2.09v-4.01c0-1.69-.61-3.14-1.83-4.35s-2.66-1.81-4.33-1.81-3.14.6-4.35,1.81-1.81,2.66-1.81,4.35v4.01c0,1.16.94,2.09,2.09,2.09h.01Z"/>
  <path class="st0" d="M94.11,105.78c.48,0,.86.41.82.89-.96,10.48-6.48,15.72-16.54,15.72h-16.69c-4.55,0-8.46-1.63-11.72-4.89-3.26-3.26-4.89-7.17-4.89-11.72v-41.65c0-4.47,1.6-8.36,4.81-11.66,3.21-3.3,7.14-4.95,11.79-4.95h16.69c10.17,0,15.68,5.24,16.55,15.73.04.47-.34.88-.82.88h-6.76c-.4,0-.74-.3-.8-.7-.8-5.04-3.52-7.56-8.17-7.56h-8.34c-2.29,0-4.25.81-5.89,2.44-1.64,1.62-2.46,3.57-2.46,5.83v41.65c0,1.74.49,3.3,1.47,4.67,1.67,2.34,4.48,3.59,7.35,3.59h7.86c4.67,0,7.4-2.52,8.17-7.56.06-.4.4-.71.8-.71h6.77Z"/>
  <path class="st0" d="M97.41,116.68V52.41c0-1.35,2-1,3.34-1l2.82-.04c1.35,0,3.35-.4,3.35.95v40.9c.19-1.46.69-2.54,1.49-3.26.8-.72,1.89-1.07,3.29-1.07h4.78c2.61,0,4.84.85,6.71,2.56s2.8,3.74,2.8,6.1v19.13c0,1.35-1.09,2.44-2.44,2.44h-4.64c-1.35,0-2.44-1.09-2.44-2.44v-19.13c0-1.19-.47-2.21-1.42-3.06s-2.07-1.27-3.36-1.27-2.44.42-3.37,1.27-1.41,1.87-1.41,3.06v19.13c0,1.35-1.09,2.44-2.44,2.44h-4.64c-1.35,0-2.44-1.09-2.44-2.44h.02Z"/>
  <path class="st0" d="M156.85,107.35h-19.08v4.78c0,1.28.47,2.39,1.4,3.33s2.06,1.41,3.38,1.41h4.78c3.16,0,4.74-1.58,4.74-4.73h4.78c-.75,6.34-3.92,9.51-9.52,9.51h-9.56c-2.61,0-4.84-.93-6.71-2.8-1.87-1.87-2.8-4.11-2.8-6.71v-14.3c0-2.64.94-4.89,2.81-6.76,1.88-1.87,4.11-2.8,6.7-2.8h9.56c2.61,0,4.84.94,6.71,2.83,1.87,1.88,2.8,4.13,2.8,6.73v9.51h.01ZM137.77,102.57h9.56v-4.73c0-1.31-.47-2.44-1.42-3.37-.95-.94-2.07-1.41-3.36-1.41s-2.44.47-3.37,1.41-1.41,2.06-1.41,3.37v4.73Z"/>
  <path class="st0" d="M188.39,121.64h-9.52v-23.81c0-1.31-.47-2.44-1.42-3.37-.95-.94-2.07-1.41-3.36-1.41s-2.44.47-3.37,1.41-1.41,2.06-1.41,3.37v23.81h-9.51v-33.37h9.51v4.78c.19-1.61.69-2.81,1.49-3.6s1.89-1.19,3.29-1.19h4.78c3.23,0,5.61,1.12,7.15,3.37.74-1.13,1.71-1.98,2.9-2.54s2.61-.84,4.24-.84h4.74c2.61,0,4.85.94,6.73,2.8,1.88,1.87,2.82,4.12,2.82,6.76v23.81h-9.56v-23.81c0-1.3-.47-2.42-1.41-3.36s-2.05-1.42-3.33-1.42-2.43.47-3.37,1.41-1.41,2.06-1.41,3.37v23.81l.02.02Z"/>
  <rect class="st0" x="59.9" width="15.26" height="4.44"/>
  <rect class="st0" x="91.71" y="9.52" width="10.88" height="4.44"/>
  <rect class="st0" x="28.71" y="72.5" width="13.07" height="3.83" rx=".6" ry=".6"/>
  <rect class="st0" x="151.41" y="82.74" width="10.88" height="4.44"/>
  <rect class="st0" x="28.71" y="66.95" width="13.07" height="3.83" rx=".6" ry=".6"/>
</svg>